<!DOCTYPE svg PUBLIC "-//W3C//DTD SVG 1.1//EN" "http://www.w3.org/Graphics/SVG/1.1/DTD/svg11.dtd">
<!-- Uploaded to: SVG Repo, www.svgrepo.com, Transformed by: SVG Repo Mixer Tools -->
<svg version="1.1" id="Icons" xmlns="http://www.w3.org/2000/svg" xmlns:xlink="http://www.w3.org/1999/xlink" viewBox="0 0 32 32" xml:space="preserve" width="64px" height="64px" fill="#000000">
<g id="SVGRepo_bgCarrier" stroke-width="0"/>
<g id="SVGRepo_tracerCarrier" stroke-linecap="round" stroke-linejoin="round"/>
<g id="SVGRepo_iconCarrier"> <style type="text/css"> .st0{fill:none;stroke:#000000;stroke-width:2;stroke-linecap:round;stroke-linejoin:round;stroke-miterlimit:10;} </style> <path class="st0" d="M16,10L16,10l-6,0l-0.3,0.9C7.3,17.4,7.4,24.6,10,31l0,0h12l0.6-4.5c0.3-2.2-0.5-4.4-2-6L19,18.9 c-1.3-1.2-2-2.9-2-4.7v0C17,12.8,16.7,11.3,16,10z"/> <path class="st0" d="M8,6L8,6c1.2,0.9,2,2.3,2,4h6.3c0.7-2.3,2.9-4,5.4-4H24V2H12C9.8,2,8,3.8,8,6z"/> <line class="st0" x1="20" y1="2" x2="20" y2="6.3"/> <path class="st0" d="M24,13l-0.3-0.2C21.3,11.7,19.6,9.5,19,7l0,0"/> <path class="st0" d="M13,10v3.2c0,5,1.8,9.9,5,13.8l0,0"/> <line class="st0" x1="8" y1="21" x2="21" y2="21"/> </g>
</svg>